# xmcd
#
# Track frame offsets:
#	183
#	17698
#	39513
#	55243
#	63408
#	82990
#	106858
#	127663
#	149733
#	160200
#	176598
#	187315
#	209683
#	231770
#	256815
#	262868
#	281003
#	293968
#
# Disc length: 4149
#
# Revision: 5
# Processed by: cddbd v1.5.1PL0 Copyright (c) Steve Scherf et al.
# Submitted via: OrangeCD 4.2
# Normalized: r3:TSWAP
#
DISCID=07103312
DTITLE=Memphis Slim, Willie Mabon et al - Blues at Montreux
DYEAR=1900
DGENRE=Blues
TTITLE0=Mickey Baker - Digging My Potatoes
TTITLE1=Willie Mabon - Harmonica Swing
TTITLE2=Clarence Gatemouth Brown - Cajun Blues
TTITLE3=Clarence Gatemouth Brown - Highball For Gate
TTITLE4=Mickey Baker - Make Your Bed Up Mama
TTITLE5=Willie Mabon - Sad Feeling
TTITLE6=Willie Mabon - Mabon's Soul
TTITLE7=Clarence Gatemouth Brown - Got My Mojo Working
TTITLE8=Memphis Slim - You've Been Gone Too Long
TTITLE9=Memphis Slim - Wish Me Well
TTITLE10=Memphis Slim - Didn't We Babe
TTITLE11=Memphis Slim - Montreux Boogie
TTITLE12=Memphis Slim - My Little Angel Child
TTITLE13=Memphis Slim - Watergate
TTITLE14=Memphis Slim - Baby Please Come Home
TTITLE15=Memphis Slim - Every Day I Have The Blues
TTITLE16=Memphis Slim - All By Myself
TTITLE17=Memphis Slim - Bye, Bye, Bye, Blues
EXTD=
EXTT0=
EXTT1=
EXTT2=
EXTT3=
EXTT4=
EXTT5=
EXTT6=
EXTT7=
EXTT8=
EXTT9=
EXTT10=
EXTT11=
EXTT12=
EXTT13=
EXTT14=
EXTT15=
EXTT16=
EXTT17=
PLAYORDER=
